<svg fill="none" height="50" viewBox="0 0 50 50" width="50" xmlns="http://www.w3.org/2000/svg"><path clip-rule="evenodd" d="m25 50c13.8071 0 25-11.1929 25-25s-11.1929-25-25-25-25 11.1929-25 25 11.1929 25 25 25zm-5.9534-14.25c1.25.5416 2.6146.8125 4.0938.8125 2.5833 0 4.5417-.6667 5.875-2 1.3333-1.3542 2-3.375 2-6.0625v-14.1875h-12.7188v4.0625h7.6876v10.4062c0 2.4167-1.0313 3.625-3.0938 3.625-1.5208 0-2.875-.8021-4.0625-2.4062l-2.8125 3.375c.7917 1.0208 1.8021 1.8125 3.0312 2.375z" fill="#1e272e" fill-rule="evenodd"/></svg>